<svg xmlns="http://www.w3.org/2000/svg" xmlns:xlink="http://www.w3.org/1999/xlink" xmlns:lucid="lucid" width="1460" height="4180"><g transform="translate(100 960)" lucid:page-tab-id="0_0"><path d="M-1806.87-1258.83h3677.74V3840.5h-3677.74z" fill="#fff"/><path d="M80 1820c0 33.14-35.82 60-80 60s-80-26.86-80-60 35.82-60 80-60 80 26.86 80 60z" stroke="#333" stroke-width="3" fill="#d1bcd2"/><use xlink:href="#a" transform="matrix(1,0,0,1,-80,1760) translate(58.029999999999994 63.15)"/><path d="M719.75-460.25c0 10.9-8.84 19.75-19.75 19.75-10.9 0-19.75-8.84-19.75-19.75 0-10.9 8.84-19.75 19.75-19.75 10.9 0 19.75 8.84 19.75 19.75z" stroke="#333" stroke-width="3" fill="#d1bcd2"/><path d="M700-440.5v49.3c0 3.3 1.44 8.27 3.2 11.07L740-322m-40-63.2L660-322m0-98.75h80" stroke="#333" stroke-width="3" fill="none"/><path d="M660-474c0-3.3 2.7-6 6-6h68c3.3 0 6 2.7 6 6v168c0 3.3-2.7 6-6 6h-68c-3.3 0-6-2.7-6-6z" fill="none"/><use xlink:href="#b" transform="matrix(1,0,0,1,580,-322) translate(88.58024691358025 17.77777777777778)"/><path d="M719.75 974.56c0 10.9-8.84 19.75-19.75 19.75-10.9 0-19.75-8.83-19.75-19.74 0-10.9 8.84-19.75 19.75-19.75 10.9 0 19.75 8.85 19.75 19.76z" stroke="#333" stroke-width="3" fill="#d1bcd2"/><path d="M700 994.3v49.3c0 3.32 1.44 8.28 3.2 11.08l36.8 58.13m-40-63.2l-40 63.2m0-98.74h80" stroke="#333" stroke-width="3" fill="none"/><path d="M660 960.8c0-3.3 2.7-6 6-6h68c3.3 0 6 2.7 6 6v168c0 3.32-2.7 6-6 6h-68c-3.3 0-6-2.68-6-6z" fill="none"/><use xlink:href="#c" transform="matrix(1,0,0,1,580,1112.8083229332674) translate(84.87654320987654 17.77777777777778)"/><path d="M719.75 2419.75c0 10.9-8.84 19.75-19.75 19.75-10.9 0-19.75-8.84-19.75-19.75 0-10.9 8.84-19.75 19.75-19.75 10.9 0 19.75 8.84 19.75 19.75z" stroke="#333" stroke-width="3" fill="#d1bcd2"/><path d="M700 2439.5v49.3c0 3.3 1.44 8.27 3.2 11.07L740 2558m-40-63.2l-40 63.2m0-98.75h80" stroke="#333" stroke-width="3" fill="none"/><path d="M660 2406c0-3.3 2.7-6 6-6h68c3.3 0 6 2.7 6 6v168c0 3.3-2.7 6-6 6h-68c-3.3 0-6-2.7-6-6z" fill="none"/><use xlink:href="#d" transform="matrix(1,0,0,1,580,2558) translate(96.60493827160494 17.77777777777778)"/><path d="M1340 1840c0 33.14-35.82 60-80 60s-80-26.86-80-60 35.82-60 80-60 80 26.86 80 60z" stroke="#333" stroke-width="3" fill="#d1bcd2"/><use xlink:href="#e" transform="matrix(1,0,0,1,1180,1780) translate(46.57999999999999 63.15)"/><path d="M1080-780c0 33.14-35.82 60-80 60s-80-26.86-80-60 35.82-60 80-60 80 26.86 80 60z" stroke="#333" stroke-width="3" fill="#d1bcd2"/><use xlink:href="#f" transform="matrix(1,0,0,1,920,-840) translate(61.055 51.9)"/><use xlink:href="#g" transform="matrix(1,0,0,1,920,-840) translate(27.554999999999993 73.5)"/><path d="M1340-880c0 33.14-35.82 60-80 60s-80-26.86-80-60 35.82-60 80-60 80 26.86 80 60z" stroke="#333" stroke-width="3" fill="#d1bcd2"/><use xlink:href="#h" transform="matrix(1,0,0,1,1180,-940) translate(54.105 63.15)"/><path d="M1340-640c0 33.14-35.82 60-80 60s-80-26.86-80-60 35.82-60 80-60 80 26.86 80 60z" stroke="#333" stroke-width="3" fill="#d1bcd2"/><use xlink:href="#i" transform="matrix(1,0,0,1,1180,-700) translate(31.12999999999999 63.15)"/><use xlink:href="#j" transform="matrix(1,0,0,1,1180,-700) translate(78.97999999999999 63.15)"/><path d="M1080-20c0 33.14-35.82 60-80 60s-80-26.86-80-60 35.82-60 80-60 80 26.86 80 60z" stroke="#333" stroke-width="3" fill="#d1bcd2"/><use xlink:href="#k" transform="matrix(1,0,0,1,920,-80) translate(13.604999999999999 63.15)"/><use xlink:href="#l" transform="matrix(1,0,0,1,920,-80) translate(75.50500000000001 63.15)"/><path d="M1340-20c0 33.14-35.82 60-80 60s-80-26.86-80-60 35.82-60 80-60 80 26.86 80 60z" stroke="#333" stroke-width="3" fill="#d1bcd2"/><use xlink:href="#h" transform="matrix(1,0,0,1,1180,-80) translate(54.105 63.15)"/><path d="M1340 500c0 33.14-35.82 60-80 60s-80-26.86-80-60 35.82-60 80-60 80 26.86 80 60z" stroke="#333" stroke-width="3" fill="#d1bcd2"/><use xlink:href="#m" transform="matrix(1,0,0,1,1180,440) translate(14.630000000000004 63.15)"/><use xlink:href="#l" transform="matrix(1,0,0,1,1180,440) translate(74.48 63.15)"/><path d="M1340 766.8c0 33.14-35.82 60-80 60s-80-26.86-80-60c0-33.13 35.82-60 80-60s80 26.87 80 60z" stroke="#333" stroke-width="3" fill="#d1bcd2"/><use xlink:href="#n" transform="matrix(1,0,0,1,1180,706.8031210999752) translate(54.57999999999999 63.15)"/><path d="M1340 1560c0 33.14-35.82 60-80 60s-80-26.86-80-60 35.82-60 80-60 80 26.86 80 60z" stroke="#333" stroke-width="3" fill="#d1bcd2"/><use xlink:href="#o" transform="matrix(1,0,0,1,1180,1500) translate(16.104999999999997 63.15)"/><use xlink:href="#p" transform="matrix(1,0,0,1,1180,1500) translate(88.055 63.15)"/><path d="M1340 1300c0 33.14-35.82 60-80 60s-80-26.86-80-60 35.82-60 80-60 80 26.86 80 60z" stroke="#333" stroke-width="3" fill="#d1bcd2"/><use xlink:href="#q" transform="matrix(1,0,0,1,1180,1240) translate(54.58 51.9)"/><use xlink:href="#g" transform="matrix(1,0,0,1,1180,1240) translate(27.554999999999993 73.5)"/><path d="M1080-540c0 33.14-35.82 60-80 60s-80-26.86-80-60 35.82-60 80-60 80 26.86 80 60z" stroke="#333" stroke-width="3" fill="#d1bcd2"/><use xlink:href="#r" transform="matrix(1,0,0,1,920,-600) translate(52.58 51.9)"/><use xlink:href="#g" transform="matrix(1,0,0,1,920,-600) translate(27.554999999999993 73.5)"/><path d="M1080-280c0 33.14-35.82 60-80 60s-80-26.86-80-60 35.82-60 80-60 80 26.86 80 60z" stroke="#333" stroke-width="3" fill="#d1bcd2"/><use xlink:href="#o" transform="matrix(1,0,0,1,920,-340) translate(16.104999999999997 63.15)"/><use xlink:href="#p" transform="matrix(1,0,0,1,920,-340) translate(88.055 63.15)"/><path d="M1340 1033.6c0 33.14-35.82 60-80 60s-80-26.86-80-60c0-33.13 35.82-60 80-60s80 26.87 80 60z" stroke="#333" stroke-width="3" fill="#d1bcd2"/><use xlink:href="#s" transform="matrix(1,0,0,1,1180,973.6062421999504) translate(29.529999999999994 63.15)"/><use xlink:href="#t" transform="matrix(1,0,0,1,1180,973.6062421999504) translate(76.47999999999999 63.15)"/><use xlink:href="#u" transform="matrix(1,0,0,1,1180,973.6062421999504) translate(101.48 63.15)"/><path d="M1340 2100c0 33.14-35.82 60-80 60s-80-26.86-80-60 35.82-60 80-60 80 26.86 80 60z" stroke="#333" stroke-width="3" fill="#d1bcd2"/><use xlink:href="#n" transform="matrix(1,0,0,1,1180,2040) translate(54.57999999999999 63.15)"/><path d="M1340 2360c0 33.14-35.82 60-80 60s-80-26.86-80-60 35.82-60 80-60 80 26.86 80 60z" stroke="#333" stroke-width="3" fill="#d1bcd2"/><use xlink:href="#r" transform="matrix(1,0,0,1,1180,2300) translate(52.58 51.9)"/><use xlink:href="#v" transform="matrix(1,0,0,1,1180,2300) translate(30.07999999999999 73.5)"/><path d="M1340 2620c0 33.14-35.82 60-80 60s-80-26.86-80-60 35.82-60 80-60 80 26.86 80 60z" stroke="#333" stroke-width="3" fill="#d1bcd2"/><use xlink:href="#w" transform="matrix(1,0,0,1,1180,2560) translate(49.57999999999999 51.9)"/><use xlink:href="#v" transform="matrix(1,0,0,1,1180,2560) translate(30.07999999999999 73.5)"/><path d="M1340 2880c0 33.14-35.82 60-80 60s-80-26.86-80-60 35.82-60 80-60 80 26.86 80 60z" stroke="#333" stroke-width="3" fill="#d1bcd2"/><use xlink:href="#x" transform="matrix(1,0,0,1,1180,2820) translate(16.104999999999997 63.15)"/><use xlink:href="#y" transform="matrix(1,0,0,1,1180,2820) translate(81.95500000000001 63.15)"/><path d="M1340 3140c0 33.14-35.82 60-80 60s-80-26.86-80-60 35.82-60 80-60 80 26.86 80 60z" stroke="#333" stroke-width="3" fill="#d1bcd2"/><use xlink:href="#z" transform="matrix(1,0,0,1,1180,3080) translate(44.529999999999994 63.15)"/><path d="M100 500c0 33.14-35.82 60-80 60s-80-26.86-80-60 35.82-60 80-60 80 26.86 80 60z" stroke="#333" stroke-width="3" fill="#d1bcd2"/><use xlink:href="#A" transform="matrix(1,0,0,1,-60,440) translate(50.504999999999995 63.15)"/><path d="M463.73-400.2H401V501H102.5v-2H399v-901.2h64.73m216.27 2H542.53v-2H680M695.26-401.2L681-396.57v-9.27z" fill="#333"/><path d="M698.5-401.2l-18.5 6v-12m2 9.26l10.03-3.26-10.03-3.26M102.53 501h-1.06l.03-.98v-.43l-.02-.6h1.05" fill="#333"/><path d="M401 1032.6h65.73v2H399V501H102.5v-2H401m279 533.6v2H545.53v-2M695.26 1033.6l-14.26 4.64v-9.27z" fill="#333"/><path d="M698.5 1033.6l-18.5 6.02v-12.03m2 9.27l10.03-3.26-10.03-3.25M102.53 501h-1.06l.03-.98v-.43l-.02-.6h1.05M463.73-400.2H391V1821H82.5v-2H389V-402.2h74.73m216.27 2H542.53v-2H680M695.26-401.2L681-396.57v-9.27z" fill="#333"/><path d="M698.5-401.2l-18.5 6v-12m2 9.26l10.03-3.26-10.03-3.26M82.53 1821h-1.06l.03-.98v-.43l-.02-.6h1.05" fill="#333"/><use xlink:href="#B" transform="matrix(1,0,0,1,463.73385826771676,-412.0020807327824) translate(0 14.4)"/><path d="M466.73 1034.6H391V1821H82.5v-2H389v-786.4h77.73m213.27 2H545.53v-2H680M695.26 1033.6l-14.26 4.64v-9.27z" fill="#333"/><path d="M698.5 1033.6l-18.5 6.02v-12.03m2 9.27l10.03-3.26-10.03-3.25M82.53 1821h-1.06l.03-.98v-.43l-.02-.6h1.05M82.5 2477.8h450.23v2H80.5V1821h2M680 2477.8v2h-68.47v-2M695.26 2478.8l-14.26 4.63v-9.27z" fill="#333"/><path d="M698.5 2478.8l-18.5 6v-12m2 9.26l10.03-3.26-10.03-3.26M82.5 1821.03h-2V1820h2M401 2477.8h131.73v2H399V501H102.5v-2H401m279 1978.8v2h-68.47v-2" fill="#333"/><path d="M695.26 2478.8l-14.26 4.63v-9.27z" fill="#333"/><path d="M698.5 2478.8l-18.5 6v-12m2 9.26l10.03-3.26-10.03-3.26M102.53 501h-1.06l.03-.98v-.43l-.02-.6h1.05" fill="#333"/><use xlink:href="#C" transform="matrix(1,0,0,1,532.7338582677168,2467.9979192672176) translate(0 14.4)"/><path d="M401 1032.6h65.73v2H399V501H102.5v-2H401m279 533.6v2H545.53v-2M695.26 1033.6l-14.26 4.64v-9.27z" fill="#333"/><path d="M698.5 1033.6l-18.5 6.02v-12.03m2 9.27l10.03-3.26-10.03-3.25M102.53 501h-1.06l.03-.98v-.43l-.02-.6h1.05" fill="#333"/><use xlink:href="#B" transform="matrix(1,0,0,1,466.73385826771676,1022.806242200485) translate(0 14.4)"/><path d="M702.5-401.2H810V-780h90M702.53-401.2h-4.03" stroke="#333" stroke-width="2" fill="none"/><path d="M915.26-780L901-775.36v-9.28z" stroke="#333" stroke-width="2" fill="#333"/><path d="M702.5-401.2H810V-540h90M702.53-401.2h-4.03" stroke="#333" stroke-width="2" fill="none"/><path d="M915.26-540L901-535.36v-9.28z" stroke="#333" stroke-width="2" fill="#333"/><path d="M702.5-401.2H810V-280h90M702.53-401.2h-4.03" stroke="#333" stroke-width="2" fill="none"/><path d="M915.26-280L901-275.36v-9.28z" stroke="#333" stroke-width="2" fill="#333"/><path d="M702.5-401.2H810V-20h90M702.53-401.2h-4.03" stroke="#333" stroke-width="2" fill="none"/><path d="M915.26-20L901-15.36v-9.28z" stroke="#333" stroke-width="2" fill="#333"/><path d="M1082.5-780h47.55v-97.1h30.05" stroke="#333" stroke-width="2" fill="none"/><path d="M1082.53-779h-1.06l.03-.98v-.43l-.02-.6h1.05" fill="#333"/><path d="M1175.36-877.1l-14.26 4.64v-9.28z" stroke="#333" stroke-width="2" fill="#333"/><path d="M1082.5-780h47.5v140h30" stroke="#333" stroke-width="2" fill="none"/><path d="M1082.53-779h-1.06l.03-.98v-.43l-.02-.6h1.05" fill="#333"/><path d="M1175.26-640l-14.26 4.64v-9.28z" stroke="#333" stroke-width="2" fill="#333"/><path d="M1082.5-20h77.5" stroke="#333" stroke-width="2" fill="none"/><path d="M1082.53-19h-1.06l.03-.98v-.43l-.02-.6h1.05" fill="#333"/><path d="M1175.26-20L1161-15.36v-9.28z" stroke="#333" stroke-width="2" fill="#333"/><path d="M702.5 1033.6H940V500h220M702.53 1033.6h-4.03" stroke="#333" stroke-width="2" fill="none"/><path d="M1175.26 500l-14.26 4.64v-9.28z" stroke="#333" stroke-width="2" fill="#333"/><path d="M702.5 1033.6H940V766.8h220M702.53 1033.6h-4.03" stroke="#333" stroke-width="2" fill="none"/><path d="M1175.26 766.8l-14.26 4.64v-9.27z" stroke="#333" stroke-width="2" fill="#333"/><path d="M702.5 1033.6H1160M702.53 1033.6h-4.03" stroke="#333" stroke-width="2" fill="none"/><path d="M1175.26 1033.6l-14.26 4.64v-9.27z" stroke="#333" stroke-width="2" fill="#333"/><path d="M702.5 1033.6H940V1300h220M702.53 1033.6h-4.03" stroke="#333" stroke-width="2" fill="none"/><path d="M1175.26 1300l-14.26 4.64v-9.28z" stroke="#333" stroke-width="2" fill="#333"/><path d="M702.5 1033.6H940V1560h220M702.53 1033.6h-4.03" stroke="#333" stroke-width="2" fill="none"/><path d="M1175.26 1560l-14.26 4.64v-9.28z" stroke="#333" stroke-width="2" fill="#333"/><path d="M702.5 1033.6H940V1740h320v20M702.53 1033.6h-4.03" stroke="#333" stroke-width="2" fill="none"/><path d="M1260 1775.26l-4.64-14.26h9.28z" stroke="#333" stroke-width="2" fill="#333"/><path d="M702.5 2478.8H940V1840h220M702.53 2478.8h-4.03" stroke="#333" stroke-width="2" fill="none"/><path d="M1175.26 1840l-14.26 4.64v-9.28z" stroke="#333" stroke-width="2" fill="#333"/><path d="M702.5 2478.8H940V2100h220M702.53 2478.8h-4.03" stroke="#333" stroke-width="2" fill="none"/><path d="M1175.26 2100l-14.26 4.64v-9.28z" stroke="#333" stroke-width="2" fill="#333"/><path d="M702.5 2478.8H940V2360h220M702.53 2478.8h-4.03" stroke="#333" stroke-width="2" fill="none"/><path d="M1175.26 2360l-14.26 4.64v-9.28z" stroke="#333" stroke-width="2" fill="#333"/><path d="M702.5 2478.8H940V2620h220M702.53 2478.8h-4.03" stroke="#333" stroke-width="2" fill="none"/><path d="M1175.26 2620l-14.26 4.64v-9.28z" stroke="#333" stroke-width="2" fill="#333"/><path d="M702.5 2478.8H940V2880h220M702.53 2478.8h-4.03" stroke="#333" stroke-width="2" fill="none"/><path d="M1175.26 2880l-14.26 4.64v-9.28z" stroke="#333" stroke-width="2" fill="#333"/><path d="M702.5 2478.8H940V3140h220M702.53 2478.8h-4.03" stroke="#333" stroke-width="2" fill="none"/><path d="M1175.26 3140l-14.26 4.64v-9.28z" stroke="#333" stroke-width="2" fill="#333"/><defs><path d="M30 0v-248h33v221h125V0H30" id="D"/><path d="M100-194c62-1 85 37 85 99 1 63-27 99-86 99S16-35 15-95c0-66 28-99 85-99zM99-20c44 1 53-31 53-75 0-43-8-75-51-75s-53 32-53 75 10 74 51 75" id="E"/><path d="M177-190C167-65 218 103 67 71c-23-6-38-20-44-43l32-5c15 47 100 32 89-28v-30C133-14 115 1 83 1 29 1 15-40 15-95c0-56 16-97 71-98 29-1 48 16 59 35 1-10 0-23 2-32h30zM94-22c36 0 50-32 50-73 0-42-14-75-50-75-39 0-46 34-46 75s6 73 46 73" id="F"/><path d="M24-231v-30h32v30H24zM24 0v-190h32V0H24" id="G"/><path d="M117-194c89-4 53 116 60 194h-32v-121c0-31-8-49-39-48C34-167 62-67 57 0H25l-1-190h30c1 10-1 24 2 32 11-22 29-35 61-36" id="H"/><g id="a"><use transform="matrix(0.05,0,0,0.05,0,0)" xlink:href="#D"/><use transform="matrix(0.05,0,0,0.05,10,0)" xlink:href="#E"/><use transform="matrix(0.05,0,0,0.05,20,0)" xlink:href="#F"/><use transform="matrix(0.05,0,0,0.05,30,0)" xlink:href="#G"/><use transform="matrix(0.05,0,0,0.05,33.95,0)" xlink:href="#H"/></g><path fill="#1d262b" d="M205 0l-28-72H64L36 0H1l101-248h38L239 0h-34zm-38-99l-47-123c-12 45-31 82-46 123h93" id="I"/><path fill="#1d262b" d="M85-194c31 0 48 13 60 33l-1-100h32l1 261h-30c-2-10 0-23-3-31C134-8 116 4 85 4 32 4 16-35 15-94c0-66 23-100 70-100zm9 24c-40 0-46 34-46 75 0 40 6 74 45 74 42 0 51-32 51-76 0-42-9-74-50-73" id="J"/><path fill="#1d262b" d="M210-169c-67 3-38 105-44 169h-31v-121c0-29-5-50-35-48C34-165 62-65 56 0H25l-1-190h30c1 10-1 24 2 32 10-44 99-50 107 0 11-21 27-35 58-36 85-2 47 119 55 194h-31v-121c0-29-5-49-35-48" id="K"/><path fill="#1d262b" d="M24-231v-30h32v30H24zM24 0v-190h32V0H24" id="L"/><path fill="#1d262b" d="M117-194c89-4 53 116 60 194h-32v-121c0-31-8-49-39-48C34-167 62-67 57 0H25l-1-190h30c1 10-1 24 2 32 11-22 29-35 61-36" id="M"/><g id="b"><use transform="matrix(0.06172839506172839,0,0,0.06172839506172839,0,0)" xlink:href="#I"/><use transform="matrix(0.06172839506172839,0,0,0.06172839506172839,14.814814814814813,0)" xlink:href="#J"/><use transform="matrix(0.06172839506172839,0,0,0.06172839506172839,27.160493827160494,0)" xlink:href="#K"/><use transform="matrix(0.06172839506172839,0,0,0.06172839506172839,45.61728395061728,0)" xlink:href="#L"/><use transform="matrix(0.06172839506172839,0,0,0.06172839506172839,50.49382716049382,0)" xlink:href="#M"/></g><path fill="#1d262b" d="M185-189c-5-48-123-54-124 2 14 75 158 14 163 119 3 78-121 87-175 55-17-10-28-26-33-46l33-7c5 56 141 63 141-1 0-78-155-14-162-118-5-82 145-84 179-34 5 7 8 16 11 25" id="N"/><path fill="#1d262b" d="M106-169C34-169 62-67 57 0H25v-261h32l-1 103c12-21 28-36 61-36 89 0 53 116 60 194h-32v-121c2-32-8-49-39-48" id="O"/><path fill="#1d262b" d="M100-194c63 0 86 42 84 106H49c0 40 14 67 53 68 26 1 43-12 49-29l28 8c-11 28-37 45-77 45C44 4 14-33 15-96c1-61 26-98 85-98zm52 81c6-60-76-77-97-28-3 7-6 17-6 28h103" id="P"/><path fill="#1d262b" d="M24 0v-261h32V0H24" id="Q"/><path fill="#1d262b" d="M59-47c-2 24 18 29 38 22v24C64 9 27 4 27-40v-127H5v-23h24l9-43h21v43h35v23H59v120" id="R"/><path fill="#1d262b" d="M114-163C36-179 61-72 57 0H25l-1-190h30c1 12-1 29 2 39 6-27 23-49 58-41v29" id="S"/><g id="c"><use transform="matrix(0.06172839506172839,0,0,0.06172839506172839,0,0)" xlink:href="#N"/><use transform="matrix(0.06172839506172839,0,0,0.06172839506172839,14.814814814814813,0)" xlink:href="#O"/><use transform="matrix(0.06172839506172839,0,0,0.06172839506172839,27.160493827160494,0)" xlink:href="#P"/><use transform="matrix(0.06172839506172839,0,0,0.06172839506172839,39.50617283950617,0)" xlink:href="#Q"/><use transform="matrix(0.06172839506172839,0,0,0.06172839506172839,44.382716049382715,0)" xlink:href="#R"/><use transform="matrix(0.06172839506172839,0,0,0.06172839506172839,50.55555555555556,0)" xlink:href="#P"/><use transform="matrix(0.06172839506172839,0,0,0.06172839506172839,62.901234567901234,0)" xlink:href="#S"/></g><path fill="#1d262b" d="M232-93c-1 65-40 97-104 97C67 4 28-28 28-90v-158h33c8 89-33 224 67 224 102 0 64-133 71-224h33v155" id="T"/><path fill="#1d262b" d="M135-143c-3-34-86-38-87 0 15 53 115 12 119 90S17 21 10-45l28-5c4 36 97 45 98 0-10-56-113-15-118-90-4-57 82-63 122-42 12 7 21 19 24 35" id="U"/><g id="d"><use transform="matrix(0.06172839506172839,0,0,0.06172839506172839,0,0)" xlink:href="#T"/><use transform="matrix(0.06172839506172839,0,0,0.06172839506172839,15.987654320987653,0)" xlink:href="#U"/><use transform="matrix(0.06172839506172839,0,0,0.06172839506172839,27.098765432098766,0)" xlink:href="#P"/><use transform="matrix(0.06172839506172839,0,0,0.06172839506172839,39.44444444444444,0)" xlink:href="#S"/></g><path d="M233-177c-1 41-23 64-60 70L243 0h-38l-65-103H63V0H30v-248c88 3 205-21 203 71zM63-129c60-2 137 13 137-47 0-61-80-42-137-45v92" id="V"/><path d="M100-194c63 0 86 42 84 106H49c0 40 14 67 53 68 26 1 43-12 49-29l28 8c-11 28-37 45-77 45C44 4 14-33 15-96c1-61 26-98 85-98zm52 81c6-60-76-77-97-28-3 7-6 17-6 28h103" id="W"/><path d="M135-143c-3-34-86-38-87 0 15 53 115 12 119 90S17 21 10-45l28-5c4 36 97 45 98 0-10-56-113-15-118-90-4-57 82-63 122-42 12 7 21 19 24 35" id="X"/><path d="M59-47c-2 24 18 29 38 22v24C64 9 27 4 27-40v-127H5v-23h24l9-43h21v43h35v23H59v120" id="Y"/><path d="M114-163C36-179 61-72 57 0H25l-1-190h30c1 12-1 29 2 39 6-27 23-49 58-41v29" id="Z"/><g id="e"><use transform="matrix(0.05,0,0,0.05,0,0)" xlink:href="#V"/><use transform="matrix(0.05,0,0,0.05,12.950000000000001,0)" xlink:href="#W"/><use transform="matrix(0.05,0,0,0.05,22.950000000000003,0)" xlink:href="#F"/><use transform="matrix(0.05,0,0,0.05,32.95,0)" xlink:href="#G"/><use transform="matrix(0.05,0,0,0.05,36.900000000000006,0)" xlink:href="#X"/><use transform="matrix(0.05,0,0,0.05,45.900000000000006,0)" xlink:href="#Y"/><use transform="matrix(0.05,0,0,0.05,50.900000000000006,0)" xlink:href="#W"/><use transform="matrix(0.05,0,0,0.05,60.900000000000006,0)" xlink:href="#Z"/></g><path d="M232-93c-1 65-40 97-104 97C67 4 28-28 28-90v-158h33c8 89-33 224 67 224 102 0 64-133 71-224h33v155" id="aa"/><g id="f"><use transform="matrix(0.05,0,0,0.05,0,0)" xlink:href="#aa"/><use transform="matrix(0.05,0,0,0.05,12.950000000000001,0)" xlink:href="#X"/><use transform="matrix(0.05,0,0,0.05,21.950000000000003,0)" xlink:href="#W"/><use transform="matrix(0.05,0,0,0.05,31.950000000000003,0)" xlink:href="#Z"/></g><path d="M240 0l2-218c-23 76-54 145-80 218h-23L58-218 59 0H30v-248h44l77 211c21-75 51-140 76-211h43V0h-30" id="ab"/><path d="M141-36C126-15 110 5 73 4 37 3 15-17 15-53c-1-64 63-63 125-63 3-35-9-54-41-54-24 1-41 7-42 31l-33-3c5-37 33-52 76-52 45 0 72 20 72 64v82c-1 20 7 32 28 27v20c-31 9-61-2-59-35zM48-53c0 20 12 33 32 33 41-3 63-29 60-74-43 2-92-5-92 41" id="ac"/><path d="M210-169c-67 3-38 105-44 169h-31v-121c0-29-5-50-35-48C34-165 62-65 56 0H25l-1-190h30c1 10-1 24 2 32 10-44 99-50 107 0 11-21 27-35 58-36 85-2 47 119 55 194h-31v-121c0-29-5-49-35-48" id="ad"/><g id="g"><use transform="matrix(0.05,0,0,0.05,0,0)" xlink:href="#ab"/><use transform="matrix(0.05,0,0,0.05,14.950000000000001,0)" xlink:href="#ac"/><use transform="matrix(0.05,0,0,0.05,24.950000000000003,0)" xlink:href="#H"/><use transform="matrix(0.05,0,0,0.05,34.95,0)" xlink:href="#ac"/><use transform="matrix(0.05,0,0,0.05,44.95,0)" xlink:href="#F"/><use transform="matrix(0.05,0,0,0.05,54.95,0)" xlink:href="#W"/><use transform="matrix(0.05,0,0,0.05,64.95,0)" xlink:href="#ad"/><use transform="matrix(0.05,0,0,0.05,79.9,0)" xlink:href="#W"/><use transform="matrix(0.05,0,0,0.05,89.9,0)" xlink:href="#H"/><use transform="matrix(0.05,0,0,0.05,99.9,0)" xlink:href="#Y"/></g><path d="M212-179c-10-28-35-45-73-45-59 0-87 40-87 99 0 60 29 101 89 101 43 0 62-24 78-52l27 14C228-24 195 4 139 4 59 4 22-46 18-125c-6-104 99-153 187-111 19 9 31 26 39 46" id="ae"/><path d="M30-248c118-7 216 8 213 122C240-48 200 0 122 0H30v-248zM63-27c89 8 146-16 146-99s-60-101-146-95v194" id="af"/><g id="h"><use transform="matrix(0.05,0,0,0.05,0,0)" xlink:href="#ae"/><use transform="matrix(0.05,0,0,0.05,12.950000000000001,0)" xlink:href="#V"/><use transform="matrix(0.05,0,0,0.05,25.900000000000002,0)" xlink:href="#aa"/><use transform="matrix(0.05,0,0,0.05,38.85,0)" xlink:href="#af"/></g><path d="M24 0v-261h32V0H24" id="ag"/><g id="i"><use transform="matrix(0.05,0,0,0.05,0,0)" xlink:href="#V"/><use transform="matrix(0.05,0,0,0.05,12.950000000000001,0)" xlink:href="#E"/><use transform="matrix(0.05,0,0,0.05,22.950000000000003,0)" xlink:href="#ag"/><use transform="matrix(0.05,0,0,0.05,26.900000000000002,0)" xlink:href="#W"/><use transform="matrix(0.05,0,0,0.05,36.900000000000006,0)" xlink:href="#Z"/></g><path d="M206 0h-36l-40-164L89 0H53L-1-190h32L70-26l43-164h34l41 164 42-164h31" id="ah"/><path d="M96-169c-40 0-48 33-48 73s9 75 48 75c24 0 41-14 43-38l32 2c-6 37-31 61-74 61-59 0-76-41-82-99-10-93 101-131 147-64 4 7 5 14 7 22l-32 3c-4-21-16-35-41-35" id="ai"/><path d="M106-169C34-169 62-67 57 0H25v-261h32l-1 103c12-21 28-36 61-36 89 0 53 116 60 194h-32v-121c2-32-8-49-39-48" id="aj"/><g id="j"><use transform="matrix(0.05,0,0,0.05,0,0)" xlink:href="#X"/><use transform="matrix(0.05,0,0,0.05,9,0)" xlink:href="#ah"/><use transform="matrix(0.05,0,0,0.05,21.950000000000003,0)" xlink:href="#G"/><use transform="matrix(0.05,0,0,0.05,25.900000000000002,0)" xlink:href="#Y"/><use transform="matrix(0.05,0,0,0.05,30.900000000000002,0)" xlink:href="#ai"/><use transform="matrix(0.05,0,0,0.05,39.900000000000006,0)" xlink:href="#aj"/></g><path d="M185-189c-5-48-123-54-124 2 14 75 158 14 163 119 3 78-121 87-175 55-17-10-28-26-33-46l33-7c5 56 141 63 141-1 0-78-155-14-162-118-5-82 145-84 179-34 5 7 8 16 11 25" id="ak"/><g id="k"><use transform="matrix(0.05,0,0,0.05,0,0)" xlink:href="#ak"/><use transform="matrix(0.05,0,0,0.05,12,0)" xlink:href="#aj"/><use transform="matrix(0.05,0,0,0.05,22,0)" xlink:href="#W"/><use transform="matrix(0.05,0,0,0.05,32,0)" xlink:href="#ag"/><use transform="matrix(0.05,0,0,0.05,35.95,0)" xlink:href="#Y"/><use transform="matrix(0.05,0,0,0.05,40.95,0)" xlink:href="#W"/><use transform="matrix(0.05,0,0,0.05,50.95,0)" xlink:href="#Z"/></g><g id="l"><use transform="matrix(0.05,0,0,0.05,0,0)" xlink:href="#ab"/><use transform="matrix(0.05,0,0,0.05,14.950000000000001,0)" xlink:href="#ac"/><use transform="matrix(0.05,0,0,0.05,24.950000000000003,0)" xlink:href="#H"/><use transform="matrix(0.05,0,0,0.05,34.95,0)" xlink:href="#ac"/><use transform="matrix(0.05,0,0,0.05,44.95,0)" xlink:href="#F"/><use transform="matrix(0.05,0,0,0.05,54.95,0)" xlink:href="#W"/><use transform="matrix(0.05,0,0,0.05,64.95,0)" xlink:href="#Z"/></g><path d="M205 0l-28-72H64L36 0H1l101-248h38L239 0h-34zm-38-99l-47-123c-12 45-31 82-46 123h93" id="al"/><g id="m"><use transform="matrix(0.05,0,0,0.05,0,0)" xlink:href="#al"/><use transform="matrix(0.05,0,0,0.05,12,0)" xlink:href="#H"/><use transform="matrix(0.05,0,0,0.05,22,0)" xlink:href="#G"/><use transform="matrix(0.05,0,0,0.05,25.950000000000003,0)" xlink:href="#ad"/><use transform="matrix(0.05,0,0,0.05,40.9,0)" xlink:href="#ac"/><use transform="matrix(0.05,0,0,0.05,50.9,0)" xlink:href="#ag"/></g><path d="M30-248c87 1 191-15 191 75 0 78-77 80-158 76V0H30v-248zm33 125c57 0 124 11 124-50 0-59-68-47-124-48v98" id="am"/><path d="M101-234c-31-9-42 10-38 44h38v23H63V0H32v-167H5v-23h27c-7-52 17-82 69-68v24" id="an"/><g id="n"><use transform="matrix(0.05,0,0,0.05,0,0)" xlink:href="#am"/><use transform="matrix(0.05,0,0,0.05,12,0)" xlink:href="#Z"/><use transform="matrix(0.05,0,0,0.05,17.95,0)" xlink:href="#E"/><use transform="matrix(0.05,0,0,0.05,27.950000000000003,0)" xlink:href="#an"/><use transform="matrix(0.05,0,0,0.05,32.95,0)" xlink:href="#G"/><use transform="matrix(0.05,0,0,0.05,36.900000000000006,0)" xlink:href="#ag"/><use transform="matrix(0.05,0,0,0.05,40.85000000000001,0)" xlink:href="#W"/></g><path d="M145-31C134-9 116 4 85 4 32 4 16-35 15-94c0-59 17-99 70-100 32-1 48 14 60 33 0-11-1-24 2-32h30l-1 268h-32zM93-21c41 0 51-33 51-76s-8-73-50-73c-40 0-46 35-46 75s5 74 45 74" id="ao"/><path d="M84 4C-5 8 30-112 23-190h32v120c0 31 7 50 39 49 72-2 45-101 50-169h31l1 190h-30c-1-10 1-25-2-33-11 22-28 36-60 37" id="ap"/><g id="o"><use transform="matrix(0.05,0,0,0.05,0,0)" xlink:href="#V"/><use transform="matrix(0.05,0,0,0.05,12.950000000000001,0)" xlink:href="#W"/><use transform="matrix(0.05,0,0,0.05,22.950000000000003,0)" xlink:href="#ao"/><use transform="matrix(0.05,0,0,0.05,32.95,0)" xlink:href="#ap"/><use transform="matrix(0.05,0,0,0.05,42.95,0)" xlink:href="#W"/><use transform="matrix(0.05,0,0,0.05,52.95,0)" xlink:href="#X"/><use transform="matrix(0.05,0,0,0.05,61.95,0)" xlink:href="#Y"/></g><path d="M197 0v-115H63V0H30v-248h33v105h134v-105h34V0h-34" id="aq"/><path d="M179-190L93 31C79 59 56 82 12 73V49c39 6 53-20 64-50L1-190h34L92-34l54-156h33" id="ar"/><g id="p"><use transform="matrix(0.05,0,0,0.05,0,0)" xlink:href="#aq"/><use transform="matrix(0.05,0,0,0.05,12.950000000000001,0)" xlink:href="#G"/><use transform="matrix(0.05,0,0,0.05,16.900000000000002,0)" xlink:href="#X"/><use transform="matrix(0.05,0,0,0.05,25.900000000000002,0)" xlink:href="#Y"/><use transform="matrix(0.05,0,0,0.05,30.900000000000002,0)" xlink:href="#E"/><use transform="matrix(0.05,0,0,0.05,40.900000000000006,0)" xlink:href="#Z"/><use transform="matrix(0.05,0,0,0.05,46.85000000000001,0)" xlink:href="#ar"/></g><path d="M115-194c53 0 69 39 70 98 0 66-23 100-70 100C84 3 66-7 56-30L54 0H23l1-261h32v101c10-23 28-34 59-34zm-8 174c40 0 45-34 45-75 0-40-5-75-45-74-42 0-51 32-51 76 0 43 10 73 51 73" id="as"/><g id="q"><use transform="matrix(0.05,0,0,0.05,0,0)" xlink:href="#ae"/><use transform="matrix(0.05,0,0,0.05,12.950000000000001,0)" xlink:href="#E"/><use transform="matrix(0.05,0,0,0.05,22.950000000000003,0)" xlink:href="#ag"/><use transform="matrix(0.05,0,0,0.05,26.900000000000002,0)" xlink:href="#ag"/><use transform="matrix(0.05,0,0,0.05,30.85,0)" xlink:href="#ac"/><use transform="matrix(0.05,0,0,0.05,40.85,0)" xlink:href="#as"/></g><g id="r"><use transform="matrix(0.05,0,0,0.05,0,0)" xlink:href="#al"/><use transform="matrix(0.05,0,0,0.05,12,0)" xlink:href="#H"/><use transform="matrix(0.05,0,0,0.05,22,0)" xlink:href="#G"/><use transform="matrix(0.05,0,0,0.05,25.950000000000003,0)" xlink:href="#ad"/><use transform="matrix(0.05,0,0,0.05,40.9,0)" xlink:href="#ac"/><use transform="matrix(0.05,0,0,0.05,50.9,0)" xlink:href="#ag"/></g><g id="s"><use transform="matrix(0.05,0,0,0.05,0,0)" xlink:href="#ae"/><use transform="matrix(0.05,0,0,0.05,12.950000000000001,0)" xlink:href="#ac"/><use transform="matrix(0.05,0,0,0.05,22.950000000000003,0)" xlink:href="#X"/><use transform="matrix(0.05,0,0,0.05,31.950000000000003,0)" xlink:href="#E"/></g><path d="M85-194c31 0 48 13 60 33l-1-100h32l1 261h-30c-2-10 0-23-3-31C134-8 116 4 85 4 32 4 16-35 15-94c0-66 23-100 70-100zm9 24c-40 0-46 34-46 75 0 40 6 74 45 74 42 0 51-32 51-76 0-42-9-74-50-73" id="at"/><g id="t"><use transform="matrix(0.05,0,0,0.05,0,0)" xlink:href="#at"/><use transform="matrix(0.05,0,0,0.05,10,0)" xlink:href="#W"/></g><g id="u"><use transform="matrix(0.05,0,0,0.05,0,0)" xlink:href="#ap"/><use transform="matrix(0.05,0,0,0.05,10,0)" xlink:href="#X"/><use transform="matrix(0.05,0,0,0.05,19,0)" xlink:href="#E"/></g><g id="v"><use transform="matrix(0.05,0,0,0.05,0,0)" xlink:href="#ae"/><use transform="matrix(0.05,0,0,0.05,12.950000000000001,0)" xlink:href="#E"/><use transform="matrix(0.05,0,0,0.05,22.950000000000003,0)" xlink:href="#H"/><use transform="matrix(0.05,0,0,0.05,32.95,0)" xlink:href="#X"/><use transform="matrix(0.05,0,0,0.05,41.95,0)" xlink:href="#ap"/><use transform="matrix(0.05,0,0,0.05,51.95,0)" xlink:href="#ag"/><use transform="matrix(0.05,0,0,0.05,55.900000000000006,0)" xlink:href="#Y"/><use transform="matrix(0.05,0,0,0.05,60.900000000000006,0)" xlink:href="#ac"/><use transform="matrix(0.05,0,0,0.05,70.9,0)" xlink:href="#Y"/><use transform="matrix(0.05,0,0,0.05,75.9,0)" xlink:href="#G"/><use transform="matrix(0.05,0,0,0.05,79.85000000000001,0)" xlink:href="#E"/><use transform="matrix(0.05,0,0,0.05,89.85000000000001,0)" xlink:href="#H"/></g><g id="w"><use transform="matrix(0.05,0,0,0.05,0,0)" xlink:href="#ak"/><use transform="matrix(0.05,0,0,0.05,12,0)" xlink:href="#aj"/><use transform="matrix(0.05,0,0,0.05,22,0)" xlink:href="#W"/><use transform="matrix(0.05,0,0,0.05,32,0)" xlink:href="#ag"/><use transform="matrix(0.05,0,0,0.05,35.95,0)" xlink:href="#ag"/><use transform="matrix(0.05,0,0,0.05,39.900000000000006,0)" xlink:href="#Y"/><use transform="matrix(0.05,0,0,0.05,44.900000000000006,0)" xlink:href="#W"/><use transform="matrix(0.05,0,0,0.05,54.900000000000006,0)" xlink:href="#Z"/></g><g id="x"><use transform="matrix(0.05,0,0,0.05,0,0)" xlink:href="#ak"/><use transform="matrix(0.05,0,0,0.05,12,0)" xlink:href="#aj"/><use transform="matrix(0.05,0,0,0.05,22,0)" xlink:href="#W"/><use transform="matrix(0.05,0,0,0.05,32,0)" xlink:href="#ag"/><use transform="matrix(0.05,0,0,0.05,35.95,0)" xlink:href="#ag"/><use transform="matrix(0.05,0,0,0.05,39.900000000000006,0)" xlink:href="#Y"/><use transform="matrix(0.05,0,0,0.05,44.900000000000006,0)" xlink:href="#W"/><use transform="matrix(0.05,0,0,0.05,54.900000000000006,0)" xlink:href="#Z"/></g><g id="y"><use transform="matrix(0.05,0,0,0.05,0,0)" xlink:href="#ae"/><use transform="matrix(0.05,0,0,0.05,12.950000000000001,0)" xlink:href="#E"/><use transform="matrix(0.05,0,0,0.05,22.950000000000003,0)" xlink:href="#H"/><use transform="matrix(0.05,0,0,0.05,32.95,0)" xlink:href="#Y"/><use transform="matrix(0.05,0,0,0.05,37.95,0)" xlink:href="#ac"/><use transform="matrix(0.05,0,0,0.05,47.95,0)" xlink:href="#ai"/><use transform="matrix(0.05,0,0,0.05,56.95,0)" xlink:href="#Y"/></g><path d="M115-194c55 1 70 41 70 98S169 2 115 4C84 4 66-9 55-30l1 105H24l-1-265h31l2 30c10-21 28-34 59-34zm-8 174c40 0 45-34 45-75s-6-73-45-74c-42 0-51 32-51 76 0 43 10 73 51 73" id="au"/><g id="z"><use transform="matrix(0.05,0,0,0.05,0,0)" xlink:href="#al"/><use transform="matrix(0.05,0,0,0.05,12,0)" xlink:href="#at"/><use transform="matrix(0.05,0,0,0.05,22,0)" xlink:href="#E"/><use transform="matrix(0.05,0,0,0.05,32,0)" xlink:href="#au"/><use transform="matrix(0.05,0,0,0.05,42,0)" xlink:href="#Y"/><use transform="matrix(0.05,0,0,0.05,47,0)" xlink:href="#G"/><use transform="matrix(0.05,0,0,0.05,50.95,0)" xlink:href="#E"/><use transform="matrix(0.05,0,0,0.05,60.95,0)" xlink:href="#H"/></g><path d="M140-251c81 0 123 46 123 126C263-46 219 4 140 4 59 4 17-45 17-125s42-126 123-126zm0 227c63 0 89-41 89-101s-29-99-89-99c-61 0-89 39-89 99S79-25 140-24" id="av"/><g id="A"><use transform="matrix(0.05,0,0,0.05,0,0)" xlink:href="#D"/><use transform="matrix(0.05,0,0,0.05,10,0)" xlink:href="#E"/><use transform="matrix(0.05,0,0,0.05,20,0)" xlink:href="#F"/><use transform="matrix(0.05,0,0,0.05,30,0)" xlink:href="#av"/><use transform="matrix(0.05,0,0,0.05,44,0)" xlink:href="#ap"/><use transform="matrix(0.05,0,0,0.05,54,0)" xlink:href="#Y"/></g><path fill="#1d262b" d="M33 0v-248h34V0H33" id="aw"/><path fill="#1d262b" d="M190 0L58-211 59 0H30v-248h39L202-35l-2-213h31V0h-41" id="ax"/><path fill="#1d262b" d="M212-179c-10-28-35-45-73-45-59 0-87 40-87 99 0 60 29 101 89 101 43 0 62-24 78-52l27 14C228-24 195 4 139 4 59 4 22-46 18-125c-6-104 99-153 187-111 19 9 31 26 39 46" id="ay"/><path fill="#1d262b" d="M30 0v-248h33v221h125V0H30" id="az"/><path fill="#1d262b" d="M30-248c118-7 216 8 213 122C240-48 200 0 122 0H30v-248zM63-27c89 8 146-16 146-99s-60-101-146-95v194" id="aA"/><path fill="#1d262b" d="M30 0v-248h187v28H63v79h144v27H63v87h162V0H30" id="aB"/><g id="B"><use transform="matrix(0.05,0,0,0.05,0,0)" xlink:href="#aw"/><use transform="matrix(0.05,0,0,0.05,5,0)" xlink:href="#ax"/><use transform="matrix(0.05,0,0,0.05,17.950000000000003,0)" xlink:href="#ay"/><use transform="matrix(0.05,0,0,0.05,30.900000000000006,0)" xlink:href="#az"/><use transform="matrix(0.05,0,0,0.05,40.900000000000006,0)" xlink:href="#T"/><use transform="matrix(0.05,0,0,0.05,53.85,0)" xlink:href="#aA"/><use transform="matrix(0.05,0,0,0.05,66.80000000000001,0)" xlink:href="#aB"/></g><g id="C"><use transform="matrix(0.05,0,0,0.05,0,0)" xlink:href="#aw"/><use transform="matrix(0.05,0,0,0.05,5,0)" xlink:href="#ax"/><use transform="matrix(0.05,0,0,0.05,17.950000000000003,0)" xlink:href="#ay"/><use transform="matrix(0.05,0,0,0.05,30.900000000000006,0)" xlink:href="#az"/><use transform="matrix(0.05,0,0,0.05,40.900000000000006,0)" xlink:href="#T"/><use transform="matrix(0.05,0,0,0.05,53.85,0)" xlink:href="#aA"/><use transform="matrix(0.05,0,0,0.05,66.80000000000001,0)" xlink:href="#aB"/></g></defs></g></svg>